<?xml version="1.0" encoding="UTF-8" standalone="no"?>
<svg width="235px" height="51px" viewBox="0 0 235 51" version="1.1" xmlns="http://www.w3.org/2000/svg" xmlns:xlink="http://www.w3.org/1999/xlink">
    <!-- Generator: Sketch 3.7 (28169) - http://www.bohemiancoding.com/sketch -->
    <title>Horizontal Logo Black</title>
    <desc>Created with Sketch.</desc>
    <defs>
        <polygon id="path-1" points="13.038 17.5339 13.038 0.3379 0.6431 0.3379 0.6431 17.5339 13.038 17.5339"></polygon>
        <polygon id="path-3" points="0 51 234.038 51 234.038 0 0 0"></polygon>
    </defs>
    <g id="Symbols" stroke="none" stroke-width="1" fill="none" fill-rule="evenodd">
        <g id="Header" transform="translate(-150.000000, -25.000000)">
            <g id="Horizontal-Logo-Black" transform="translate(150.000000, 25.000000)">
                <path d="M42.5277,6.9747 L42.5277,7.3777 L46.0177,10.0607 L37.0227,34.0137 L30.9237,20.3237 L35.6117,10.0607 L38.5047,7.3777 L38.5047,6.9747 L30.8427,6.9747 L30.8427,7.3777 L33.4757,10.0607 L29.9187,17.9797 L26.4327,10.0607 L29.0997,7.3777 L29.0997,6.9747 L22.5477,6.9747 L37.1617,39.3717 L48.3647,10.0607 L51.4517,7.3777 L51.4517,6.9747 L42.5277,6.9747 Z M16.8917,6.9747 L16.8917,7.3777 L19.9167,10.0607 L25.4137,22.0727 L19.8637,34.4837 L9.6027,10.0607 L13.1447,7.3777 L13.1447,6.9747 L5.8397,6.9747 L19.6547,39.4437 L26.5777,24.4867 L35.0177,42.6777 L35.9517,42.6777 L36.5637,41.0487 L20.9317,6.9747 L16.8917,6.9747 Z M-0.0003,6.9747 L-0.0003,7.3777 L3.0877,10.0607 L17.2377,42.6777 L18.1837,42.6777 L18.9137,40.9937 L4.2337,6.9747 L-0.0003,6.9747 Z" id="Fill-1" fill="#333333"></path>
                <polygon id="Fill-2" fill="#333333" points="98.1094 21.1597 98.1094 25.5747 97.9734 25.5747 96.8084 23.8077 91.1934 23.8077 91.1934 31.1067 93.7184 32.3797 93.7184 32.5337 87.1664 32.5337 87.1664 32.3797 88.8864 31.1327 88.8864 16.7377 87.1664 15.4927 87.1664 15.3377 98.5194 15.3377 98.5194 18.5557 98.3644 18.5557 96.6034 16.1927 91.1934 16.1927 91.1934 22.9207 96.8084 22.9207 97.9734 21.1597"></polygon>
                <polygon id="Fill-3" fill="#333333" points="103.7842 32.3799 105.4942 31.1329 105.4942 16.7379 103.7842 15.4929 103.7842 15.3379 109.5212 15.3379 109.5212 15.4929 107.8132 16.7379 107.8132 31.1329 109.5212 32.3799 109.5212 32.5339 103.7842 32.5339"></polygon>
                <g id="Group-21">
                    <path d="M113.7481,32.3799 L115.6451,31.0049 L115.6451,17.4389 C114.8421,16.5329 114.1391,15.8839 113.6411,15.4929 L113.6411,15.3379 L116.8591,15.3379 L128.8091,28.9799 L128.8091,16.8659 L126.8641,15.4929 L126.8641,15.3379 L131.7811,15.3379 L131.7811,15.4929 L129.8851,16.8659 L129.8851,32.5339 L129.0501,32.5339 L116.7051,18.6349 L116.7051,31.0049 L118.6511,32.3799 L118.6511,32.5339 L113.7481,32.5339 L113.7481,32.3799 L113.7481,32.3799 Z" id="Fill-4" fill="#333333"></path>
                    <path d="M143.6455,24.4302 L141.2855,18.7932 L139.1235,24.4302 L143.6455,24.4302 Z M138.3495,32.5342 L134.0625,32.5342 L134.0625,32.3802 L135.5145,31.1332 L141.7485,14.9712 L142.0375,14.9712 L148.8185,31.1332 L150.2675,32.3802 L150.2675,32.5342 L144.6665,32.5342 L144.6665,32.3802 L146.4595,31.1332 L144.0155,25.2902 L138.7915,25.2902 L136.5535,31.1332 L138.3495,32.3802 L138.3495,32.5342 Z" id="Fill-6" fill="#333333"></path>
                    <path d="M153.4659,32.3799 L155.3579,31.0049 L155.3579,17.4389 C154.5559,16.5329 153.8579,15.8839 153.3609,15.4929 L153.3609,15.3379 L156.5869,15.3379 L168.5389,28.9799 L168.5389,16.8659 L166.5909,15.4929 L166.5909,15.3379 L171.5079,15.3379 L171.5079,15.4929 L169.5989,16.8659 L169.5989,32.5339 L168.7759,32.5339 L156.4309,18.6349 L156.4309,31.0049 L158.3779,32.3799 L158.3779,32.5339 L153.4659,32.5339 L153.4659,32.3799 Z" id="Fill-8" fill="#333333"></path>
                    <path d="M174.1787,24.0371 C174.1787,19.3921 177.6587,15.0481 183.4817,15.0481 C185.7887,15.0481 187.7657,15.5171 188.7777,15.8061 L188.7777,18.6081 L188.6537,18.6081 C187.5827,17.1301 185.9527,15.9351 183.3767,15.9351 C179.2167,15.9351 176.7517,19.5731 176.7517,23.8081 C176.7517,28.5881 179.7907,31.9351 183.5657,31.9351 C186.5227,31.9351 188.2617,30.0151 189.0147,29.0831 L189.1477,29.0831 L189.1477,31.6271 C188.3477,32.0451 186.2337,32.8231 183.4817,32.8231 C178.1537,32.8231 174.1787,29.2631 174.1787,24.0371" id="Fill-10" fill="#333333"></path>
                    <polygon id="Fill-12" fill="#333333" points="193.531 32.3799 195.24 31.1329 195.24 16.7379 193.531 15.4929 193.531 15.3379 199.265 15.3379 199.265 15.4929 197.557 16.7379 197.557 31.1329 199.265 32.3799 199.265 32.5339 193.531 32.5339"></polygon>
                    <path d="M212.086,24.4302 L209.725,18.7932 L207.571,24.4302 L212.086,24.4302 Z M206.791,32.5342 L202.506,32.5342 L202.506,32.3802 L203.954,31.1332 L210.187,14.9712 L210.479,14.9712 L217.258,31.1332 L218.724,32.3802 L218.724,32.5342 L213.103,32.5342 L213.103,32.3802 L214.899,31.1332 L212.456,25.2902 L207.233,25.2902 L204.998,31.1332 L206.791,32.3802 L206.791,32.5342 Z" id="Fill-14" fill="#333333"></path>
                    <g id="Group-18" transform="translate(221.000000, 15.000000)">
                        <mask id="mask-2" fill="white">
                            <use xlink:href="#path-1"></use>
                        </mask>
                        <g id="Clip-17"></g>
                        <polygon id="Fill-16" fill="#333333" mask="url(#mask-2)" points="13.0381 13.3819 13.0381 17.5339 0.6431 17.5339 0.6431 17.3799 2.3651 16.1329 2.3651 1.7379 0.6431 0.4929 0.6431 0.3379 6.4101 0.3379 6.4101 0.4929 4.6731 1.7379 4.6731 16.6549 10.6451 16.6549 12.8831 13.3819"></polygon>
                    </g>
                    <mask id="mask-4" fill="white">
                        <use xlink:href="#path-3"></use>
                    </mask>
                    <g id="Clip-20"></g>
                    <polygon id="Fill-19" fill="#333333" mask="url(#mask-4)" points="66.652 51 68.434 51 68.434 0 66.652 0"></polygon>
                </g>
            </g>
        </g>
    </g>
</svg>